# xmcd
#
# Track frame offsets:
#	150
#	13979
#	24903
#	36856
#	50127
#	67315
#	85912
#	98901
#	113126
#	128304
#	142943
#	157143
#	171641
#	183636
#
# Disc length: 2671 seconds
#
# Revision: 0
# Processed by: cddbd v1.5.1PL2 Copyright (c) Steve Scherf et al.
# Submitted via: EasyCDDAExtractor 8.2.1.1
#
DISCID=c70a6d0e
DTITLE=Della Santa and Roxão - Viola Divina
DYEAR=2005
DGENRE=Other
TTITLE0=Viola Divina
TTITLE1=Pé De Cedro
TTITLE2=Expresso Boiadeiro
TTITLE3=Tô Chegando No Pedaço
TTITLE4=Amor Total
TTITLE5=Zé Da Venda
TTITLE6=Amor De Canibais
TTITLE7=Vaneirão Da Viúva
TTITLE8=Café No Bule
TTITLE9=Desandada
TTITLE10=Covardia
TTITLE11=Humilde Brasileiro
TTITLE12=Mendigo Do Amor
TTITLE13=Tributo A Dois Amigos
EXTD=by Flávio Abrahão Biasuz
EXTT0=
EXTT1=
EXTT2=
EXTT3=
EXTT4=
EXTT5=
EXTT6=
EXTT7=
EXTT8=
EXTT9=
EXTT10=
EXTT11=
EXTT12=
EXTT13=
PLAYORDER=
